# xmcd CD database file
#
# Track frame offsets:
#	150
#	30610
#	50011
#	78273
#	110973
#	133404
#	151249
#	169407
#	188357
#	205490
#	224794
#	248957
#	274914
#
# Disc length: 4038 seconds
#
# Revision: 0
# Processed by: cddbd v1.5.2PL0 Copyright (c) Steve Scherf et al.
# Submitted via: CDex 1.70beta2
#
DISCID=cb0fc40d
DTITLE=Horace Silver - Blue Note Legends - Horace Silver
DYEAR=2002
DGENRE=Jazz
TTITLE0=Doodlin'
TTITLE1=The Preacher
TTITLE2=Soulville
TTITLE3=Song For My Father
TTITLE4=The Cape Verdean Blues
TTITLE5=Won't You Open Up Your Senses
TTITLE6=Love Vibrations
TTITLE7=Nobody Knows
TTITLE8=I've Had A Little Talk
TTITLE9=Kathy
TTITLE10=Liberated Brother
TTITLE11=Self Portrait No.1
TTITLE12=Señor Blues
EXTD=YEAR: 2002
EXTT0=
EXTT1=
EXTT2=
EXTT3=
EXTT4=
EXTT5=
EXTT6=
EXTT7=
EXTT8=
EXTT9=
EXTT10=
EXTT11=
EXTT12=
PLAYORDER=
